<mxfile host="app.diagrams.net" modified="2024-02-24T05:16:21.760Z" agent="Mozilla/5.0 (Windows NT 10.0; Win64; x64) AppleWebKit/537.36 (KHTML, like Gecko) Chrome/121.0.0.0 Safari/537.36 Avast/121.0.0.0" version="23.1.4" etag="n_kwMP0juoKnujRQm9qT" type="github">
  <diagram name="Page-1" id="ff1lbatHEAxQ0KwT3XPz">
    <mxGraphModel>
      <root>
        <mxCell id="0" />
        <mxCell id="1" parent="0" />
      </root>
    </mxGraphModel>
  </diagram>
</mxfile>
